HIERARCHY
ROOT Hips
{
	OFFSET 0.000000 0.000000 0.000000 
	CHANNELS 6 Xposition Yposition Zposition Yrotation Zrotation Xrotation 
	JOINT Lumbar
	{
		OFFSET 0.000000 0.000000 0.000000 
		CHANNELS 3 Zrotation Xrotation Yrotation
		JOINT Neck
		{
			OFFSET 0.000000 0.445665 0.000000 
			CHANNELS 3 Zrotation Xrotation Yrotation
			End Site
			{
				OFFSET 0.000000 0.227535 0.000000 
			}
		}
		JOINT RightShoulder
		{
			OFFSET 0.019635 0.377685 0.194865 
			CHANNELS 3 Zrotation Xrotation Yrotation
			JOINT RightElbow
			{
				OFFSET 0.000000 -0.243375 0.000000 
				CHANNELS 2 Zrotation Yrotation
				JOINT RightWrist
				{
					OFFSET 0.000000 -0.264825 0.000000 
					CHANNELS 2 Zrotation Xrotation
					End Site
					{
						OFFSET 0.006600 -0.176220 0.000990 
					}
				}
			}
		}
		JOINT LeftShoulder
		{
			OFFSET 0.019635 0.377685 -0.194865 
			CHANNELS 3 Zrotation Xrotation Yrotation
			JOINT LeftElbow
			{
				OFFSET 0.000000 -0.243375 0.000000 
				CHANNELS 2 Zrotation Yrotation
				JOINT LeftWrist
				{
					OFFSET 0.000000 -0.264825 0.000000 
					CHANNELS 2 Zrotation Xrotation
					End Site
					{
						OFFSET 0.006600 -0.176220 -0.000990 
					}
				}
			}
		}
	}
	JOINT RightHip
	{
		OFFSET 0.052140 -0.069960 0.075570 
		CHANNELS 3 Zrotation Xrotation Yrotation
		JOINT RightKnee
		{
			OFFSET 0.000000 -0.402270 0.000000 
			CHANNELS 1 Zrotation
			JOINT RightAnkle
			{
				OFFSET 0.000000 -0.404085 0.000000 
				CHANNELS 3 Zrotation Xrotation Yrotation
				End Site
				{
					OFFSET 0.204105 -0.089430 0.008415 
				}
			}
		}
	}
	JOINT LeftHip
	{
		OFFSET 0.052140 -0.069960 -0.075570 
		CHANNELS 3 Zrotation Xrotation Yrotation
		JOINT LeftKnee
		{
			OFFSET 0.000000 -0.402270 0.000000 
			CHANNELS 1 Zrotation
			JOINT LeftAnkle
			{
				OFFSET 0.000000 -0.404085 0.000000 
				CHANNELS 3 Zrotation Xrotation Yrotation
				End Site
				{
					OFFSET 0.204105 -0.089430 -0.008415 
				}
			}
		}
	}
}
MOTION
Frames: 13
Frame Time: 0.02
-0.14118 -0.00122 0.1716 -193.35045 -24.27917 -3.62078 38.45167 2.01179 -11.34213 -22.05371 0.0813 -2.11966 17.08826 -59.7539 15.5224 91.23804 81.12442 15.20377 -3.07449 18.69793 58.12567 -17.72358 93.73895 -74.37371 18.38502 4.43228 37.19892 -7.61351 -13.07218 -20.35251 -11.31081 -3.15525 -4.0174 27.08326 3.12972 13.9785 -25.23959 -7.60826 3.39068 3.93661
-0.14116 -0.00117 0.17169 -193.28042 -24.14936 -3.61661 38.33731 2.016 -11.35486 -22.05395 0.11555 -2.11966 17.3104 -59.76941 15.79901 91.23138 81.10185 15.47115 -3.19505 18.78726 58.16578 -17.83883 93.72309 -74.41764 18.37878 4.42711 37.0457 -7.54866 -12.66241 -20.3236 -11.35475 -3.19164 -4.03705 26.93297 3.08842 13.79958 -25.19349 -7.6202 3.39881 3.9417
-0.1412 -0.00112 0.17175 -193.23761 -24.00915 -3.61448 38.19643 2.0265 -11.34485 -22.027 0.1597 -2.11966 17.71592 -59.80021 16.20652 91.15515 81.0609 15.81232 -3.34989 19.00891 58.18719 -18.03066 93.69078 -74.45492 18.37549 4.41799 36.89072 -7.46965 -12.19686 -20.30244 -11.40344 -3.23138 -4.05813 26.76427 3.04319 13.60232 -25.13785 -7.63583 3.41046 3.94885
-0.14122 -0.00107 0.17182 -193.18534 -23.88172 -3.61126 38.07544 2.03413 -11.34379 -22.01368 0.19846 -2.11966 18.03484 -59.81645 16.54816 91.11207 81.02806 16.10948 -3.48227 19.16738 58.21826 -18.18518 93.66807 -74.49427 18.37005 4.41054 36.74539 -7.40005 -11.77391 -20.27927 -11.44782 -3.26812 -4.07774 26.61316 3.00129 13.42029 -25.08948 -7.6494 3.42028 3.95489
-0.14121 -0.00101 0.17192 -193.12012 -23.72018 -3.60837 37.92112 2.04157 -11.34982 -21.99448 0.24073 -2.11966 18.38296 -59.86532 16.92582 91.06432 80.98854 16.45393 -3.64423 19.34921 58.24592 -18.35748 93.63644 -74.53546 18.36895 4.40386 36.56175 -7.31779 -11.27672 -20.24888 -11.5011 -3.31132 -4.10093 26.42276 2.95195 13.20623 -25.02849 -7.66475 3.43128 3.96177
-0.14127 -0.00097 0.17194 -193.08827 -23.62653 -3.60544 37.82922 2.05101 -11.33548 -21.98143 0.27815 -2.11966 18.70717 -59.84962 17.25487 91.00948 80.96176 16.71548 -3.75261 19.51018 58.27555 -18.50823 93.61937 -74.5724 18.35921 4.39462 36.4569 -7.25846 -10.92127 -20.23558 -11.53709 -3.34182 -4.11697 26.30903 2.91753 13.0553 -24.99134 -7.67725 3.4406 3.96736
-0.14149 -0.00098 0.17177 -193.14602 -23.73196 -3.60148 37.92602 2.06419 -11.26717 -21.98993 0.29965 -2.11966 18.92973 -59.65293 17.43307 90.94702 80.97168 16.74022 -3.70372 19.57649 58.3166 -18.58013 93.64764 -74.5949 18.32443 4.37845 36.58184 -7.26724 -10.97284 -20.26904 -11.52352 -3.33608 -4.11271 26.423 2.92521 13.08771 -25.02589 -7.6804 3.44428 3.9688
-0.14177 -0.00102 0.17152 -193.23578 -23.90456 -3.59752 38.08493 2.07924 -11.17956 -22.00597 0.31598 -2.11966 19.11839 -59.39081 17.55437 90.88037 80.99656 16.67745 -3.59993 19.61668 58.35985 -18.62692 93.69091 -74.61417 18.28088 4.35997 36.78426 -7.29929 -11.16849 -20.31933 -11.49255 -3.31753 -4.10124 26.61287 2.94819 13.18404 -25.08422 -7.68061 3.44615 3.96886
-0.14203 -0.00104 0.1713 -193.30831 -24.04054 -3.59386 38.20903 2.09363 -11.1027 -22.02001 0.33484 -2.11966 19.31407 -59.15746 17.68985 90.81871 81.0178 16.64694 -3.52168 19.67019 58.40093 -18.68441 93.72667 -74.63831 18.24143 4.34302 36.94364 -7.3199 -11.29756 -20.36103 -11.47 -3.30502 -4.09318 26.76061 2.96428 13.24843 -25.12943 -7.68257 3.44896 3.96961
-0.14228 -0.00107 0.17109 -193.39309 -24.20166 -3.58901 38.35973 2.10745 -11.01667 -22.02717 0.35336 -2.11966 19.55068 -58.92732 17.87723 90.7419 81.02544 16.64804 -3.44171 19.72193 58.44617 -18.74718 93.76492 -74.64879 18.20131 4.32385 37.1357 -7.34391 -11.43079 -20.4068 -11.4454 -3.29158 -4.08453 26.93977 2.97985 13.3238 -25.18398 -7.68303 3.45147 3.97023
-0.14256 -0.00109 0.17084 -193.45962 -24.32674 -3.58658 38.47041 2.12279 -10.9455 -22.0507 0.37114 -2.11966 19.693 -58.67652 17.94394 90.69621 81.06455 16.56494 -3.35236 19.76998 58.48371 -18.79266 93.80157 -74.68583 18.16084 4.30889 37.27849 -7.36627 -11.58843 -20.4482 -11.42094 -3.27713 -4.07547 27.07194 3.00031 13.39238 -25.22496 -7.68574 3.45402 3.97072
-0.14291 -0.00104 0.17047 -193.4678 -24.33374 -3.59109 38.45288 2.14216 -10.91975 -22.11866 0.38883 -2.11966 19.56898 -58.36938 17.66699 90.74072 81.19319 16.2405 -3.24589 19.80783 58.49786 -18.78985 93.83182 -74.80724 18.11892 4.30633 37.26299 -7.38107 -11.79529 -20.47143 -11.40032 -3.26172 -4.06628 27.05411 3.02952 13.42174 -25.22179 -7.69644 3.45796 3.97142
-0.14329 -0.00098 0.17004 -193.45639 -24.30248 -3.59794 38.39342 2.16291 -10.90979 -22.20276 0.40575 -2.11966 19.35283 -58.04634 17.27416 90.81643 81.35194 15.83917 -3.13252 19.84324 58.50459 -18.77135 93.85971 -74.95343 18.07783 4.3087 37.19571 -7.39308 -12.01929 -20.48999 -11.38052 -3.24593 -4.05705 26.98661 3.06337 13.44329 -25.20431 -7.70929 3.46182 3.97197
